<svg width="30" height="30" viewBox="0 0 30 30" fill="none" xmlns="http://www.w3.org/2000/svg">
<path d="M29.0805 26.0685L22.1031 19.0912C23.8532 16.6315 24.6153 13.6041 24.2382 10.609C23.8612 7.61391 22.3725 4.86982 20.0674 2.9207C17.7622 0.971576 14.8089 -0.040288 11.7928 0.0856906C8.77671 0.211669 5.91804 1.46629 3.78347 3.60086C1.64891 5.73542 0.394286 8.59409 0.268308 11.6102C0.142329 14.6263 1.15419 17.5796 3.10332 19.8848C5.05244 22.1899 7.79653 23.6785 10.7916 24.0556C13.7867 24.4327 16.8141 23.6706 19.2738 21.9205L26.2511 28.8978C26.6263 29.273 27.1352 29.4838 27.6658 29.4838C28.1964 29.4838 28.7053 29.273 29.0805 28.8978C29.4556 28.5226 29.6664 28.0138 29.6664 27.4832C29.6664 26.9526 29.4556 26.4437 29.0805 26.0685ZM2.99912 12.1498C2.99912 10.3039 3.54651 8.49937 4.57207 6.96451C5.59763 5.42965 7.05529 4.23338 8.76074 3.52696C10.4662 2.82054 12.3428 2.63571 14.1533 2.99584C15.9638 3.35597 17.6268 4.24488 18.9321 5.55017C20.2374 6.85546 21.1263 8.5185 21.4864 10.329C21.8466 12.1395 21.6617 14.0161 20.9553 15.7215C20.2489 17.427 19.0526 18.8847 17.5178 19.9102C15.9829 20.9358 14.1784 21.4832 12.3325 21.4832C9.85796 21.4803 7.48563 20.4961 5.73591 18.7464C3.98618 16.9967 3.00194 14.6243 2.99912 12.1498Z" fill="#1E1E1E"/>
</svg>
